<svg width="48" height="48" viewBox="0 0 42 42" fill="none" xmlns="http://www.w3.org/2000/svg">
	<path d="M1 15V11C1 5 5 1 11 1H31C37 1 41 5 41 11V15" stroke="#1D1D1F" stroke-width="2" stroke-miterlimit="10" stroke-linecap="round" stroke-linejoin="round" />
	<path d="M1 27V31C1 37 5 41 11 41H31C37 41 41 37 41 31V27" stroke="#1D1D1F" stroke-width="2" stroke-miterlimit="10" stroke-linecap="round" stroke-linejoin="round" />
	<path
		d="M18.52 9.58L12.12 13.1401C10.68 13.9401 9.47998 15.96 9.47998 17.62V24.4001C9.47998 26.0601 10.66 28.08 12.12 28.88L18.52 32.44C19.88 33.2 22.12 33.2 23.5 32.44L29.9 28.88C31.34 28.08 32.54 26.0601 32.54 24.4001V17.62C32.54 15.96 31.36 13.9401 29.9 13.1401L23.5 9.58C22.12 8.8 19.88 8.8 18.52 9.58Z"
		stroke="#1D1D1F" stroke-width="2" stroke-linecap="round" stroke-linejoin="round" />
	<path d="M10.3999 15.52L20.9999 21.66L31.5199 15.5601" stroke="#1D1D1F" stroke-width="2" stroke-linecap="round" stroke-linejoin="round" />
	<path d="M21 32.54V21.64" stroke="#1D1D1F" stroke-width="2" stroke-linecap="round" stroke-linejoin="round" />
</svg>
