<svg width="48" height="48" viewBox="0 0 43 43" fill="none" xmlns="http://www.w3.org/2000/svg">
	<path
		d="M18.5 1.89989C19.88 0.719893 22.14 0.719893 23.54 1.89989L26.7 4.62011C27.3 5.14011 28.42 5.56005 29.22 5.56005H32.62C34.74 5.56005 36.48 7.29991 36.48 9.41991V12.8201C36.48 13.6001 36.9 14.7401 37.42 15.3401L40.14 18.5C41.32 19.88 41.32 22.14 40.14 23.54L37.42 26.6999C36.9 27.2999 36.48 28.42 36.48 29.22V32.6201C36.48 34.7401 34.74 36.48 32.62 36.48H29.22C28.44 36.48 27.3 36.8999 26.7 37.4199L23.54 40.1399C22.16 41.3199 19.9 41.3199 18.5 40.1399L15.34 37.4199C14.74 36.8999 13.62 36.48 12.82 36.48H9.35999C7.23999 36.48 5.5 34.7401 5.5 32.6201V29.1999C5.5 28.4199 5.08002 27.2999 4.58002 26.6999L1.88001 23.52C0.72001 22.14 0.72001 19.9 1.88001 18.52L4.58002 15.3401C5.08002 14.7401 5.5 13.6201 5.5 12.8401V9.41991C5.5 7.29991 7.23999 5.56005 9.35999 5.56005H12.82C13.6 5.56005 14.74 5.14011 15.34 4.62011L18.5 1.89989Z"
		stroke="#1D1D1F" stroke-width="2" stroke-linecap="round" stroke-linejoin="round" />
	<path
		d="M16.78 26.64L19.68 28.88C20.06 29.26 20.9 29.44 21.46 29.44H25C26.12 29.44 27.34 28.6001 27.62 27.4801L29.86 20.64C30.32 19.34 29.48 18.2 28.08 18.2H24.34C23.78 18.2 23.32 17.7402 23.4 17.0802L23.86 14.0802C24.04 13.2402 23.48 12.3001 22.64 12.0201C21.9 11.7401 20.96 12.12 20.58 12.68L16.74 18.38"
		stroke="#1D1D1F" stroke-width="2" stroke-miterlimit="10" />
	<path d="M12 26.6399V17.48C12 16.16 12.56 15.7 13.88 15.7H14.82C16.12 15.7 16.7 16.16 16.7 17.48V26.6399C16.7 27.9399 16.14 28.4199 14.82 28.4199H13.88C12.56 28.4199 12 27.9599 12 26.6399Z" stroke="#1D1D1F" stroke-width="2" stroke-linecap="round" stroke-linejoin="round" />
</svg>
