<svg width="30" height="30" viewBox="0 0 30 30" fill="none" xmlns="http://www.w3.org/2000/svg">
<path d="M28.3332 11.0001V19.0001C28.3332 22.3334 27.6665 24.6668 26.1732 26.1734L17.6665 17.6668L27.9732 7.36011C28.2132 8.41344 28.3332 9.61343 28.3332 11.0001Z" stroke="#6E6E73" stroke-width="2" stroke-linecap="round" stroke-linejoin="round"/>
<path d="M27.9732 7.36009L7.35982 27.9734C3.34649 27.0534 1.6665 24.2801 1.6665 19.0001V11.0001C1.6665 4.33341 4.33317 1.66675 10.9998 1.66675H18.9998C24.2798 1.66675 27.0532 3.34675 27.9732 7.36009Z" stroke="#6E6E73" stroke-width="2" stroke-linecap="round" stroke-linejoin="round"/>
<path d="M26.1732 26.1734C24.6666 27.6668 22.3332 28.3334 18.9999 28.3334H10.9999C9.61321 28.3334 8.4132 28.2134 7.35986 27.9734L17.6665 17.6667L26.1732 26.1734Z" stroke="#6E6E73" stroke-width="2" stroke-linecap="round" stroke-linejoin="round"/>
<path d="M7.31986 9.63996C8.22653 5.73329 14.0932 5.73329 14.9999 9.63996C15.5199 11.9333 14.0799 13.88 12.8132 15.08C11.8932 15.96 10.4399 15.96 9.50655 15.08C8.23988 13.88 6.78653 11.9333 7.31986 9.63996Z" stroke="#6E6E73" stroke-width="2"/>
<path d="M11.1261 10.6H11.1381" stroke="#6E6E73" stroke-width="2" stroke-linecap="round" stroke-linejoin="round"/>
</svg>
