<svg width="30" height="30" viewBox="0 0 30 30" fill="none" xmlns="http://www.w3.org/2000/svg">
<path d="M28.2934 23.4401C28.2934 23.9201 28.1867 24.4134 27.9601 24.8934C27.7334 25.3734 27.4401 25.8267 27.0534 26.2534C26.4001 26.9734 25.6801 27.4934 24.8667 27.8267C24.0667 28.1601 23.2001 28.3334 22.2667 28.3334C20.9067 28.3334 19.4534 28.0134 17.9201 27.3601C16.3867 26.7067 14.8534 25.8267 13.3334 24.7201C11.8001 23.6001 10.3467 22.3601 8.96008 20.9867C7.58675 19.6001 6.34675 18.1467 5.24008 16.6267C4.14675 15.1067 3.26675 13.5867 2.62675 12.0801C1.98675 10.5601 1.66675 9.10675 1.66675 7.72008C1.66675 6.81341 1.82675 5.94675 2.14675 5.14675C2.46675 4.33341 2.97341 3.58675 3.68008 2.92008C4.53341 2.08008 5.46675 1.66675 6.45341 1.66675C6.82675 1.66675 7.20008 1.74675 7.53341 1.90675C7.88008 2.06675 8.18675 2.30675 8.42675 2.65341L11.5201 7.01341C11.7601 7.34675 11.9334 7.65341 12.0534 7.94675C12.1734 8.22675 12.2401 8.50675 12.2401 8.76008C12.2401 9.08008 12.1467 9.40008 11.9601 9.70675C11.7867 10.0134 11.5334 10.3334 11.2134 10.6534L10.2001 11.7067C10.0534 11.8534 9.98675 12.0267 9.98675 12.2401C9.98675 12.3467 10.0001 12.4401 10.0267 12.5467C10.0667 12.6534 10.1067 12.7334 10.1334 12.8134C10.3734 13.2534 10.7867 13.8267 11.3734 14.5201C11.9734 15.2134 12.6134 15.9201 13.3067 16.6267C14.0267 17.3334 14.7201 17.9867 15.4267 18.5867C16.1201 19.1734 16.6934 19.5734 17.1467 19.8134C17.2134 19.8401 17.2934 19.8801 17.3867 19.9201C17.4934 19.9601 17.6001 19.9734 17.7201 19.9734C17.9467 19.9734 18.1201 19.8934 18.2667 19.7467L19.2801 18.7467C19.6134 18.4134 19.9334 18.1601 20.2401 18.0001C20.5467 17.8134 20.8534 17.7201 21.1867 17.7201C21.4401 17.7201 21.7067 17.7734 22.0001 17.8934C22.2934 18.0134 22.6001 18.1867 22.9334 18.4134L27.3467 21.5467C27.6934 21.7867 27.9334 22.0667 28.0801 22.4001C28.2134 22.7334 28.2934 23.0667 28.2934 23.4401Z" stroke="#6E6E73" stroke-width="2" stroke-miterlimit="10"/>
<path d="M23.6667 10.9999C23.6667 10.1999 23.04 8.97325 22.1067 7.97325C21.2533 7.05325 20.12 6.33325 19 6.33325" stroke="#6E6E73" stroke-width="2" stroke-linecap="round" stroke-linejoin="round"/>
<path d="M28.3333 11.0001C28.3333 5.84008 24.16 1.66675 19 1.66675" stroke="#6E6E73" stroke-width="2" stroke-linecap="round" stroke-linejoin="round"/>
</svg>
