<svg width="48" height="48" viewBox="0 0 40 42" fill="none" xmlns="http://www.w3.org/2000/svg">
	<path
		d="M38.1598 14.1601V27.84C38.1598 30.08 36.9598 32.1601 35.0198 33.3001L23.1398 40.1601C21.1998 41.2801 18.7998 41.2801 16.8398 40.1601L4.95982 33.3001C3.01982 32.1801 1.81982 30.1 1.81982 27.84V14.1601C1.81982 11.9201 3.01982 9.83999 4.95982 8.69999L16.8398 1.84C18.7798 0.72 21.1798 0.72 23.1398 1.84L35.0198 8.69999C36.9598 9.83999 38.1598 11.9001 38.1598 14.1601Z"
		stroke="#1D1D1F" stroke-width="2" stroke-linecap="round" stroke-linejoin="round" />
	<path d="M19.9998 19C22.5735 19 24.6598 16.9136 24.6598 14.34C24.6598 11.7663 22.5735 9.68005 19.9998 9.68005C17.4262 9.68005 15.3398 11.7663 15.3398 14.34C15.3398 16.9136 17.4262 19 19.9998 19Z" stroke="#1D1D1F" stroke-width="2" stroke-linecap="round" stroke-linejoin="round" />
	<path d="M28 30.3199C28 26.7199 24.42 23.8 20 23.8C15.58 23.8 12 26.7199 12 30.3199" stroke="#1D1D1F" stroke-width="2" stroke-linecap="round" stroke-linejoin="round" />
</svg>
